<svg height="436pt" viewBox="0 -13 436.90667 436" width="436pt" xmlns="http://www.w3.org/2000/svg"><path d="m292.453125 75.546875-55.402344 81.917969h127.867188zm0 0" fill="#f4a14e"/><path d="m292.453125 75.546875-5.65625-3.828125-55.398437 81.921875c-1.417969 2.089844-1.558594 4.796875-.375 7.027344 1.1875 2.226562 3.503906 3.621093 6.03125 3.621093h127.867187c2.671875 0 5.121094-1.578124 6.222656-4.019531 1.101563-2.4375.664063-5.320312-1.109375-7.324219l-72.46875-81.921874c-1.402344-1.589844-3.4375-2.425782-5.550781-2.289063-2.117187.136719-4.027344 1.230469-5.214844 2.984375l5.652344 3.828125-5.113281 4.519531 62.425781 70.570313h-99.859375l48.203125-71.265625-5.65625-3.824219-5.113281 4.519531zm0 0" fill="#54596e"/><path d="m266.238281 78.960938c0 43.355468-35.148437 78.503906-78.503906 78.503906-43.359375 0-78.507813-35.148438-78.507813-78.503906 0-43.359376 35.148438-78.507813 78.507813-78.507813 43.355469 0 78.503906 35.148437 78.503906 78.507813zm0 0" fill="#ff927d"/><path d="m292.453125 76.253906-71.152344 81.210938h102.660157zm0 0" fill="#ffd578"/><path d="m292.453125 76.253906-5.136719-4.5-71.152344 81.210938c-1.765624 2.011718-2.1875 4.878906-1.082031 7.316406 1.105469 2.441406 3.542969 4.007812 6.21875 4.007812h102.660157c2.257812 0 4.355468-1.101562 5.628906-2.964843 1.277344-1.867188 1.550781-4.222657.734375-6.328125l-31.507813-81.210938c-.867187-2.234375-2.820312-3.839844-5.175781-4.253906-2.359375-.417969-4.746094.417969-6.324219 2.222656l5.136719 4.5-6.363281 2.464844 27.902344 71.921875h-77.632813l61.230469-69.890625-5.136719-4.496094-6.363281 2.464844zm0 0" fill="#54596e"/><path d="m87.652344 48.238281-55.398438 81.921875h127.867188zm0 0" fill="#f4a14e"/><path d="m87.652344 48.238281-5.652344-3.824219-55.402344 81.917969c-1.414062 2.09375-1.558594 4.800781-.371094 7.027344 1.183594 2.230469 3.5 3.625 6.027344 3.625h127.867188c2.675781 0 5.125-1.582031 6.222656-4.019531 1.101562-2.441406.664062-5.324219-1.109375-7.328125l-72.46875-81.917969c-1.402344-1.59375-3.433594-2.429688-5.550781-2.292969-2.117188.136719-4.027344 1.230469-5.214844 2.988281l5.652344 3.824219-5.113282 4.519531 62.425782 70.570313h-99.859375l48.203125-71.265625-5.65625-3.824219-5.113282 4.519531zm0 0" fill="#54596e"/><path d="m87.652344 48.945312-71.152344 81.214844h102.660156zm0 0" fill="#ffd578"/><path d="m87.652344 48.945312-5.136719-4.5-71.152344 81.214844c-1.761719 2.011719-2.1875 4.878906-1.082031 7.316406 1.105469 2.441407 3.542969 4.007813 6.21875 4.007813h102.660156c2.257813 0 4.355469-1.105469 5.632813-2.96875 1.273437-1.867187 1.546875-4.21875.730469-6.324219l-31.507813-81.214844c-.867187-2.234374-2.816406-3.835937-5.175781-4.253906-2.359375-.414062-4.742188.421875-6.324219 2.226563l5.136719 4.496093-6.363282 2.46875 27.898438 71.914063h-77.636719l61.238281-69.882813-5.136718-4.5-6.363282 2.46875zm0 0" fill="#54596e"/><path d="m170.667969 75.546875-120.035157 177.492187h277.046876zm0 0" fill="#f4a14e"/><path d="m170.667969 75.546875-5.65625-3.828125-120.03125 177.496094c-1.417969 2.089844-1.5625 4.796875-.375 7.023437 1.1875 2.230469 3.503906 3.625 6.03125 3.625h277.042969c2.675781 0 5.125-1.582031 6.222656-4.019531 1.101562-2.4375.664062-5.324219-1.109375-7.328125l-157.011719-177.492187c-1.40625-1.589844-3.4375-2.425782-5.554688-2.289063-2.117187.136719-4.027343 1.230469-5.214843 2.984375l5.65625 3.828125-5.113281 4.519531 146.976562 166.148438h-249.039062l112.832031-166.84375-5.65625-3.824219-5.113281 4.519531zm0 0" fill="#54596e"/><path d="m170.667969 77.074219-154.167969 175.964843h222.433594zm0 0" fill="#ffd578"/><path d="m170.667969 77.074219-5.136719-4.5-154.167969 175.964843c-1.761719 2.011719-2.1875 4.878907-1.082031 7.316407 1.105469 2.441406 3.542969 4.007812 6.21875 4.007812h222.433594c2.257812 0 4.355468-1.101562 5.632812-2.964843 1.277344-1.867188 1.546875-4.222657.730469-6.328126l-68.265625-175.964843c-.867188-2.234375-2.820312-3.835938-5.179688-4.253907-2.355468-.417968-4.742187.417969-6.320312 2.222657l5.136719 4.5-6.367188 2.464843 64.664063 166.671876h-197.410156l144.246093-164.640626-5.132812-4.496093-6.367188 2.464843zm0 0" fill="#54596e"/><path d="m382.296875 294.003906c0-60.332031-48.898437-109.226562-109.226563-109.226562-60.332031 0-109.226562 48.894531-109.226562 109.226562 0 60.332032 48.898438 109.226563 109.226562 109.226563 60.328126 0 109.226563-48.894531 109.226563-109.226563" fill="#fff35f"/><path d="m382.296875 294.003906h6.816406c0-64.101562-51.945312-116.058594-116.042969-116.058594-64.097656 0-116.058593 51.957032-116.058593 116.058594 0 64.101563 51.960937 116.042969 116.058593 116.042969 64.097657 0 116.042969-51.945313 116.042969-116.042969h-13.648437c0 28.296875-11.453125 53.851563-29.984375 72.394532-18.554688 18.542968-44.113281 29.988281-72.410157 30-28.300781-.011719-53.859374-11.457032-72.414062-30-18.542969-18.542969-29.984375-44.097657-29.984375-72.394532 0-28.3125 11.441406-53.867187 29.984375-72.410156 18.554688-18.542969 44.113281-29.992188 72.414062-30 28.296876.007812 53.851563 11.457031 72.410157 30 18.53125 18.542969 29.984375 44.097656 29.984375 72.410156z" fill="#54596e"/><path d="m375.425781 291.054688c-15.425781 41.574218-55.40625 71.207031-102.355469 71.207031-46.953124 0-86.921874-29.617188-102.359374-71.183594-.027344.972656-.039063 1.945313-.039063 2.925781 0 28.296875 11.445313 53.851563 29.988281 72.394532 18.554688 18.542968 44.113282 29.988281 72.410156 30 28.296876-.011719 53.855469-11.457032 72.410157-30 18.53125-18.542969 29.988281-44.097657 29.988281-72.394532h6.828125-6.832031c0-.988281-.011719-1.96875-.039063-2.949218" fill="#e6dc61"/><g fill="#54596e"><path d="m165.824219 273.527344c-1.261719 6.632812-1.984375 13.464844-1.984375 20.476562 0 60.332032 48.898437 109.226563 109.230468 109.226563 60.328126 0 109.226563-48.894531 109.226563-109.226563h-6.832031c0 28.296875-11.453125 53.851563-29.984375 72.394532-18.554688 18.542968-44.113281 29.988281-72.410157 30-28.300781-.011719-53.859374-11.457032-72.414062-30-18.542969-18.542969-29.984375-44.097657-29.984375-72.394532 0-.980468.011719-1.953125.039063-2.925781-2.09375-5.644531-3.738282-11.511719-4.886719-17.550781m214.476562 0c-1.144531 6.03125-2.78125 11.890625-4.875 17.527344.027344.976562.042969 1.960937.042969 2.949218h6.828125c0-7.011718-.734375-13.84375-1.996094-20.476562"/><path d="m232.953125 319.539062c8.976563 9.757813 23.648437 15.359376 40.113281 15.417969 16.304688-.054687 30.84375-5.554687 39.847656-15.125 2.566407-2.765625 2.40625-7.085937-.355468-9.648437-2.765625-2.5625-7.082032-2.402344-9.644532.359375-5.433593 5.972656-16.710937 10.816406-29.84375 10.765625-13.269531.054687-24.636718-4.898438-30.007812-10.945313-2.535156-2.792969-6.851562-3-9.644531-.464843-2.789063 2.535156-3 6.855468-.464844 9.648437zm0 0"/><path d="m225.28125 246.214844c0 7.539062-6.113281 13.652344-13.65625 13.652344-7.539062 0-13.652344-6.113282-13.652344-13.652344 0-7.542969 6.113282-13.65625 13.652344-13.65625 7.542969 0 13.65625 6.113281 13.65625 13.65625zm0 0"/><path d="m348.160156 246.214844c0 7.539062-6.113281 13.652344-13.652344 13.652344-7.542968 0-13.65625-6.113282-13.65625-13.652344 0-7.542969 6.113282-13.65625 13.65625-13.65625 7.539063 0 13.652344 6.113281 13.652344 13.65625zm0 0"/></g><path d="m348.160156 287.171875c0 7.542969-6.113281 13.65625-13.652344 13.65625-7.542968 0-13.65625-6.113281-13.65625-13.65625 0-7.539063 6.113282-13.652344 13.65625-13.652344 7.539063 0 13.652344 6.113281 13.652344 13.652344zm0 0" fill="#ff927d"/><path d="m225.28125 287.171875c0 7.542969-6.113281 13.65625-13.65625 13.65625-7.539062 0-13.652344-6.113281-13.652344-13.65625 0-7.539063 6.113282-13.652344 13.652344-13.652344 7.542969 0 13.65625 6.113281 13.65625 13.652344zm0 0" fill="#ff927d"/><path d="m430.078125 150.640625h-88.746094c-3.769531 0-6.824219 3.050781-6.824219 6.824219 0 3.773437 3.054688 6.828125 6.824219 6.828125h88.746094c3.773437 0 6.828125-3.054688 6.828125-6.828125 0-3.773438-3.054688-6.824219-6.828125-6.824219" fill="#54596e"/><path d="m266.238281 396.398438h-88.746093c-3.769532 0-6.824219 3.054687-6.824219 6.828124 0 3.769532 3.054687 6.828126 6.824219 6.828126h88.746093c3.773438 0 6.828125-3.058594 6.828125-6.828126 0-3.773437-3.054687-6.828124-6.828125-6.828124" fill="#54596e"/><path d="m6.828125 136.988281h20.480469c3.769531 0 6.824218-3.058593 6.824218-6.828125 0-3.773437-3.054687-6.828125-6.824218-6.828125h-20.480469c-3.773437 0-6.828125 3.054688-6.828125 6.828125 0 3.769532 3.054688 6.828125 6.828125 6.828125" fill="#54596e"/><path d="m405.699219 272.0625c0 12.113281-9.824219 21.9375-21.945313 21.9375-12.113281 0-21.9375-9.828125-21.9375-21.9375 0-12.121094 17.550782-39.503906 21.9375-39.503906 4.394532 0 21.945313 27.382812 21.945313 39.503906zm0 0" fill="#55a6ff"/><path d="m323.78125 210.621094c0 12.113281-9.828125 21.9375-21.945312 21.9375-12.117188 0-21.941407-9.824219-21.941407-21.9375 0-12.121094 17.554688-39.5 21.941407-39.5 4.390624 0 21.945312 27.378906 21.945312 39.5zm0 0" fill="#55a6ff"/></svg>